<svg id="Layer_1" data-name="Layer 1" xmlns="http://www.w3.org/2000/svg" viewBox="0 0 716.5 93.62402">
  <title>chu</title>
  <g>
    <path d="M360.02734,305.375a4.64691,4.64691,0,0,1-2.84765-.91406,3.15215,3.15215,0,0,1-1.40625-2.60156,36.70529,36.70529,0,0,1-2.03906-6.92579q-.42187-2.67114-2.77735-15.15234-1.793-9.457-2.39062-15.1875a135.863,135.863,0,0,1-6.71485,19.65234,88.29189,88.29189,0,0,0-5.3789,14.58985,3.40962,3.40962,0,0,1,.42187,1.582,3.094,3.094,0,0,1-1.40625,2.60156,4.6805,4.6805,0,0,1-2.88281.94922q-4.74609,0-4.74609-4.25391L326.76953,295.25l-3.832-17.22656q-2.28589-8.71875-7.80469-24.9961a4.67713,4.67713,0,0,1-.24609-1.40625q0-3.26952,3.69141-3.26953a3.83089,3.83089,0,0,1,3.51562,2.4961,76.139,76.139,0,0,1,2.56641,7.27734q2.07421,6.36329,4.14843,15.32813l3.41016,15.53906a194.50423,194.50423,0,0,0,7.48828-21.23438q2.28516-7.62817,3.48047-10.582,3.16407-7.76953,6.15234-7.76953a3.55418,3.55418,0,0,1,3.48047,2.49609q1.26563,3.02418,2.56641,14.41407.70313,5.76635,2.39062,13.85156l3.02344,13.81641q4.71095-11.31958,11.77735-30.6211.38671-1.05468,1.75781-6.64453a21.50872,21.50872,0,0,1,2.49609-6.39844,3.8125,3.8125,0,0,1,3.30469-1.93359q3.55078,0,3.55078,3.51562a16.51334,16.51334,0,0,1-1.125,3.51563l-1.40625,3.79687-1.93359,6.25782-10.44141,25.38281q-1.44214,4.18432-4.957,12.16406A4.07369,4.07369,0,0,1,360.02734,305.375Z" transform="translate(-314.38672 -213.23535)" style="fill: #fff;stroke: #000;stroke-miterlimit: 10"/>
    <path d="M406.15234,303.61719q-7.9453,0-12.86718-3.97266-5.37891-4.39453-5.37891-12.30469,0-9.14062,4.42969-15.32812a15.04675,15.04675,0,0,1,12.86719-6.75,20.18305,20.18305,0,0,1,9.52734,1.96875,7.9346,7.9346,0,0,1,4.53516,7.45312q0,3.51563-3.97266,6.39844a56.08288,56.08288,0,0,1-7.45313,3.9375l-13.42968,6.36328a12.82227,12.82227,0,0,0,4.90429,4.39453,15.028,15.028,0,0,0,6.83789,1.47657,21.56045,21.56045,0,0,0,5.69532-.91407q4.14769-1.16014,5.34375-3.041,1.19457-1.88013,2.5664-1.88086a3.08575,3.08575,0,0,1,2.19727.93164,2.91586,2.91586,0,0,1,.9668,2.16211q0,3.90234-6.293,6.71484A25.70577,25.70577,0,0,1,406.15234,303.61719Zm-.94921-32.02735a9.01045,9.01045,0,0,0-7.13672,3.32227q-2.84766,3.32226-4.25391,10.002l10.793-5.13281a46.3271,46.3271,0,0,0,9.07031-5.37891Q410.65162,271.58984,405.20313,271.58984Z" transform="translate(-314.38672 -213.23535)" style="fill: #fff;stroke: #000;stroke-miterlimit: 10"/>
    <path d="M438.10938,274.36719l-.52735,17.47265q0,2.77736-.28125,8.15625-.35155,3.5149-3.44531,3.51563-3.446,0-3.44531-3.58594,0-4.25317.38672-12.7793.38671-8.52465.38671-12.77929,0-5.55469.17579-12.709.17577-7.15356.17578-12.709,0-3.51489,3.44531-3.51563,3.48046,0,3.48047,3.51563,0,5.55542-.17578,12.709Q438.10864,268.8125,438.10938,274.36719Z" transform="translate(-314.38672 -213.23535)" style="fill: #fff;stroke: #000;stroke-miterlimit: 10"/>
    <path d="M457.832,274.36719l-.52734,17.47265q0,2.77736-.28125,8.15625-.35157,3.5149-3.44531,3.51563-3.44606,0-3.44532-3.58594,0-4.25317.38672-12.7793.38672-8.52465.38672-12.77929,0-5.55469.17578-12.709.17579-7.15356.17578-12.709,0-3.51489,3.44532-3.51563,3.48046,0,3.48046,3.51563,0,5.55542-.17578,12.709Q457.8313,268.8125,457.832,274.36719Z" transform="translate(-314.38672 -213.23535)" style="fill: #fff;stroke: #000;stroke-miterlimit: 10"/>
    <path d="M502.55078,262.55469q-2.25,0-3.375-2.63672a6.109,6.109,0,0,0-1.82812-2.74219,10.18029,10.18029,0,0,0-3.65625-.38672q-5.09766,0-11.32032,7.80469-8.4375,10.47657-8.4375,19.86328a11.32245,11.32245,0,0,0,2.918,7.80469,9.29285,9.29285,0,0,0,7.207,3.375,15.9123,15.9123,0,0,0,7.27735-1.86328,54.844,54.844,0,0,0,6.25781-4.14844,6.1201,6.1201,0,0,1,3.02344-1.47656,3.2587,3.2587,0,0,1,2.53125,1.14258,3.73674,3.73674,0,0,1,1.01953,2.54882,3.629,3.629,0,0,1-1.33594,2.77735q-9.28125,8.22656-18.77344,8.22656a15.92178,15.92178,0,0,1-12.30468-5.58984,18.54413,18.54413,0,0,1-4.85157-12.79688q0-11.918,9.98438-24.43359,8.332-10.44141,16.80469-10.44141a27.21671,27.21671,0,0,1,3.09375.1582,12.111,12.111,0,0,1,2.42578.50977,3.73038,3.73038,0,0,1,3.19922-1.793q2.42577,0,3.05859,3.19922a36.87629,36.87629,0,0,1,.5625,6.99609,4.26277,4.26277,0,0,1-.77344,2.53125A3.09612,3.09612,0,0,1,502.55078,262.55469Z" transform="translate(-314.38672 -213.23535)" style="fill: #fff;stroke: #000;stroke-miterlimit: 10"/>
    <path d="M525.19141,304.07422a13.70384,13.70384,0,0,1-10.16016-4.35938q-4.74609-4.85155-4.99219-13.043a22.74341,22.74341,0,0,1,4.00782-13.99219,15.73347,15.73347,0,0,1,13.71093-7.13672q7.03125,0,10.65235,6.43359a24.71076,24.71076,0,0,1,2.77734,12.51563,22.74736,22.74736,0,0,1-4.07812,13.32422A13.99766,13.99766,0,0,1,525.19141,304.07422Zm2.10937-31.39453q-5.168-.03442-8.05078,4.92187a17.8587,17.8587,0,0,0-2.28516,9.07032q0,5.09765,2.77735,7.94531a7.40472,7.40472,0,0,0,5.44922,2.35547,8.53441,8.53441,0,0,0,6.293-2.67188,11.304,11.304,0,0,0,3.16406-7.98047Q535.14062,272.71484,527.30078,272.67969Z" transform="translate(-314.38672 -213.23535)" style="fill: #fff;stroke: #000;stroke-miterlimit: 10"/>
    <path d="M594.51953,304.918q-2.8828,0-3.375-3.05859-.6328-3.86719-1.26562-10.89844l-1.19532-10.89844a23.87163,23.87163,0,0,0-1.19531-4.74609q-1.1953-3.16407-2.60156-3.16407-1.30078,0-4.85156,2.21485a19.99,19.99,0,0,0-4.42969,3.26953q-.03516,3.30468.17578,6.60937l1.05469,9.38672a79.74991,79.74991,0,0,1,.668,9.17578,3.52066,3.52066,0,0,1-.9668,2.54883,3.56649,3.56649,0,0,1-4.957,0,3.51864,3.51864,0,0,1-.9668-2.54883q0-4.25317-.86133-12.56836-.86205-8.31372-.86132-12.56835a13.01727,13.01727,0,0,0-1.05469-5.80079,17.57387,17.57387,0,0,0-4.99219,3.65625l-4.14844,4.64063a21.23239,21.23239,0,0,1-1.793,2.21484q0,2.10938-.38671,6.22266-.38746,4.11328-.38672,6.082a18.20114,18.20114,0,0,0,.334,2.95313,18.00459,18.00459,0,0,1,.334,2.74218,3.1626,3.1626,0,0,1-1.07227,2.42578,3.60063,3.60063,0,0,1-2.51367.98438q-3.9734,0-3.97266-9.03516,0-2.10937.38672-6.293t.38672-6.293q0-1.86329-.334-5.58985-.33471-3.72583-.334-5.625,0-7.98046,3.58594-7.98047a3.42925,3.42925,0,0,1,2.51367,1.19532,3.70641,3.70641,0,0,1,1.14258,2.60156,18.59,18.59,0,0,1-.17578,2.07422,18.61424,18.61424,0,0,0-.17578,2.14453l.07031,3.6914a21.10586,21.10586,0,0,1,5.3789-6.80273q3.55079-3.04029,6.04688-3.041,5.5188,0,7.59375,5.48438a12.53789,12.53789,0,0,1,4.60547-3.84961,13.9606,13.9606,0,0,1,6.11719-1.2832q5.87109,0,8.01562,6.32812a91.96381,91.96381,0,0,1,1.44141,9.87891q.98364,6.04688,2.53125,20.14453a2.83555,2.83555,0,0,1-.94922,2.39062A3.62665,3.62665,0,0,1,594.51953,304.918Z" transform="translate(-314.38672 -213.23535)" style="fill: #fff;stroke: #000;stroke-miterlimit: 10"/>
    <path d="M622.22266,303.61719q-7.94532,0-12.86719-3.97266-5.37891-4.39453-5.37891-12.30469,0-9.14062,4.42969-15.32812a15.04675,15.04675,0,0,1,12.86719-6.75,20.18305,20.18305,0,0,1,9.52734,1.96875,7.9346,7.9346,0,0,1,4.53516,7.45312q0,3.51563-3.97266,6.39844a56.08322,56.08322,0,0,1-7.45312,3.9375l-13.42969,6.36328a12.82223,12.82223,0,0,0,4.9043,4.39453,15.02793,15.02793,0,0,0,6.83789,1.47657,21.56045,21.56045,0,0,0,5.69531-.91407q4.14771-1.16014,5.34375-3.041,1.19459-1.88013,2.56641-1.88086a3.08575,3.08575,0,0,1,2.19726.93164,2.91586,2.91586,0,0,1,.9668,2.16211q0,3.90234-6.293,6.71484A25.70573,25.70573,0,0,1,622.22266,303.61719Zm-.94922-32.02735a9.01046,9.01046,0,0,0-7.13672,3.32227q-2.84766,3.32226-4.25391,10.002l10.793-5.13281a46.3271,46.3271,0,0,0,9.07031-5.37891Q626.72192,271.58984,621.27344,271.58984Z" transform="translate(-314.38672 -213.23535)" style="fill: #fff;stroke: #000;stroke-miterlimit: 10"/>
    <path d="M690.28516,272.04688q-.73829,0-1.74024-.07032t-1.74023-.07031q-.80859,0-4.78125.52734l.668,20.77735.03515,1.54687.03516,1.793q.13989,7.69922-3.69141,7.69922a3.57523,3.57523,0,0,1-2.44336-.91406,2.92085,2.92085,0,0,1-1.03711-2.28516q0-1.33593.10547-4.00781.10548-2.67114.10547-4.00781l-.70312-20.53125q-2.56641-.10548-7.80469-.59766a3.18851,3.18851,0,0,1-3.12891-3.48047,3.62036,3.62036,0,0,1,.94922-2.5664,3.16779,3.16779,0,0,1,2.42578-1.01954l7.38282.59766q0-1.793-.15821-4.79883t-.1582-4.34179a3.22238,3.22238,0,0,1,1.01953-2.44336,3.49153,3.49153,0,0,1,2.49609-.9668q3.16407,0,3.69141,5.168.10546,1.30078.10547,3.1289l-.07031,2.03907-.03516,2.17968q4.35938-.56176,4.99219-.5625a20.079,20.079,0,0,1,4.78125.35157,3.088,3.088,0,0,1,2.14453,3.30468,3.51987,3.51987,0,0,1-.9668,2.54883A3.29351,3.29351,0,0,1,690.28516,272.04688Z" transform="translate(-314.38672 -213.23535)" style="fill: #fff;stroke: #000;stroke-miterlimit: 10"/>
    <path d="M713.875,304.07422a13.70461,13.70461,0,0,1-10.16016-4.35938q-4.74609-4.85155-4.99218-13.043a22.74334,22.74334,0,0,1,4.00781-13.99219,15.73347,15.73347,0,0,1,13.71094-7.13672q7.03125,0,10.65234,6.43359a24.70549,24.70549,0,0,1,2.77734,12.51563,22.74729,22.74729,0,0,1-4.07812,13.32422A13.99646,13.99646,0,0,1,713.875,304.07422Zm2.10938-31.39453q-5.168-.03442-8.05079,4.92187a17.86371,17.86371,0,0,0-2.28515,9.07032q0,5.09765,2.77734,7.94531a7.40552,7.40552,0,0,0,5.44922,2.35547,8.53439,8.53439,0,0,0,6.293-2.67188,11.29979,11.29979,0,0,0,3.16406-7.98047Q723.82423,272.71484,715.98438,272.67969Z" transform="translate(-314.38672 -213.23535)" style="fill: #fff;stroke: #000;stroke-miterlimit: 10"/>
    <path d="M803.06641,257.59766q-2.60157,0-8.01563-.42188-5.27343-.38671-8.01562-.35156h-2.4961q.10548,4.85155.94922,15.75.77345,10.16016.77344,15.78516,0,1.2312.24609,3.72656.24611,2.49683.2461,3.76172a9.98383,9.98383,0,0,1-.77344,4.11328,3.24117,3.24117,0,0,1-3.05859,2.32031,3.74439,3.74439,0,0,1-2.53125-.98437,3.20869,3.20869,0,0,1-1.125-2.53125,10.57512,10.57512,0,0,1,.17578-1.582,10.57624,10.57624,0,0,0,.17578-1.582q0-1.72192-.22852-5.168-.22851-3.4453-.22851-5.20312,0-5.02734-.8086-14.13281-.84375-9.843-.94922-14.13282L774.20313,257a50.9861,50.9861,0,0,1-12.09375-1.125,3.34392,3.34392,0,0,1-2.84766-3.48047,3.82091,3.82091,0,0,1,.91406-2.53125,3.11976,3.11976,0,0,1,2.707-1.125q1.23048.071,5.625.63281a49.95838,49.95838,0,0,0,5.69532.42188q2.10938,0,6.39843-.08789,4.28907-.08716,6.39844-.08789,2.707,0,8.0332.38672,5.32617.38745,8.03321.38672a3.40871,3.40871,0,0,1,2.53125,1.0371,3.53885,3.53885,0,0,1,1.01953,2.584,3.49487,3.49487,0,0,1-1.01953,2.54883A3.40687,3.40687,0,0,1,803.06641,257.59766Z" transform="translate(-314.38672 -213.23535)" style="fill: #fff;stroke: #000;stroke-miterlimit: 10"/>
    <path d="M836.35938,276.01953q-.24611,4.39527-3.51563,4.39453-3.02343,0-3.02344-3.48047,0-.66723-.10547-2.46093l-.10546-2.95313a18.51731,18.51731,0,0,0-8.89454,3.12891,16.84548,16.84548,0,0,0-5.20312,6.89062l.07031,19.26563q0,3.55078-3.48047,3.55078-3.09375,0-3.09375-3.55078V276.125q0-1.16016.08789-3.48047t.08789-3.48047q0-3.55077,3.09375-3.55078,3.44532,0,3.48047,5.83594,6.75-6.50391,14.97657-6.50391a4.74311,4.74311,0,0,1,4.2539,2.14453q1.40625,2.14454,1.40625,6.46875Q836.39453,275.38671,836.35938,276.01953Z" transform="translate(-314.38672 -213.23535)" style="fill: #fff;stroke: #000;stroke-miterlimit: 10"/>
    <path d="M871.05859,304.32031q-.668,0-2.42578-1.54687a15.723,15.723,0,0,1-2.35547-2.56641,45.15629,45.15629,0,0,1-5.9414,2.75977,13.099,13.099,0,0,1-4.28906.93164q-8.22657,0-11.98829-4.64063-3.55077-4.35864-3.55078-13.35937a20.17458,20.17458,0,0,1,5.85352-14.55469,18.77911,18.77911,0,0,1,13.97461-6.04687,18.06232,18.06232,0,0,1,6.85547,1.582q4.78125,1.96947,4.78125,4.74609a2.37892,2.37892,0,0,1-.70313,1.6875,25.66115,25.66115,0,0,0-.54492,4.39453q-.19337,3.05859-.22852,7.83985a28.68239,28.68239,0,0,0,.59766,6.89062,52.91138,52.91138,0,0,0,2.21484,6.1875q.24611.63282.8086,1.86328l.21094.59766a3.03007,3.03007,0,0,1-.98438,2.32031A3.25519,3.25519,0,0,1,871.05859,304.32031Zm-7.3125-24.43359a30.51268,30.51268,0,0,1,.19336-3.28711q.19336-1.77467.58008-3.7793a17.15316,17.15316,0,0,0-2.23242-.98437,4.93665,4.93665,0,0,0-1.49414-.31641,12.18866,12.18866,0,0,0-9.4043,4.44727,14.96573,14.96573,0,0,0-3.95508,10.248q0,5.76636,2.03907,8.64844a6.99883,6.99883,0,0,0,6.11718,2.88281,12.2452,12.2452,0,0,0,5.73047-1.23046,21.03856,21.03856,0,0,0,3.55078-2.67188A127.77064,127.77064,0,0,1,863.74609,279.88672Z" transform="translate(-314.38672 -213.23535)" style="fill: #fff;stroke: #000;stroke-miterlimit: 10"/>
    <path d="M896.65234,300.17188q-.10546,3.23438-3.19921,3.23437-2.56641,0-3.72657-3.02344l-5.3789-14.27343-6.25782-16.13672a4.58707,4.58707,0,0,1-.35156-1.61719,3.24915,3.24915,0,0,1,1.08985-2.46094,3.59126,3.59126,0,0,1,2.53125-1.01953,3.11756,3.11756,0,0,1,3.02343,2.14453l8.92969,24.57422q2.63671-5.62426,6.64453-16.3125.94921-2.8125,2.98828-7.94531a3.38441,3.38441,0,0,1,3.09375-2.25,3.59126,3.59126,0,0,1,2.53125,1.01953,3.21259,3.21259,0,0,1,1.08985,2.42578q0,1.33667-5.80078,15.04688Z" transform="translate(-314.38672 -213.23535)" style="fill: #fff;stroke: #000;stroke-miterlimit: 10"/>
    <path d="M931.87891,303.61719q-7.94532,0-12.86719-3.97266-5.37891-4.39453-5.37891-12.30469,0-9.14062,4.42969-15.32812a15.04675,15.04675,0,0,1,12.86719-6.75,20.18169,20.18169,0,0,1,9.52734,1.96875,7.9346,7.9346,0,0,1,4.53516,7.45312q0,3.51563-3.97266,6.39844a56.04991,56.04991,0,0,1-7.45312,3.9375l-13.42969,6.36328a12.82223,12.82223,0,0,0,4.9043,4.39453,15.02937,15.02937,0,0,0,6.83789,1.47657,21.56045,21.56045,0,0,0,5.69531-.91407q4.14843-1.16014,5.34375-3.041,1.1953-1.88013,2.56641-1.88086a3.08492,3.08492,0,0,1,2.19726.93164,2.91586,2.91586,0,0,1,.9668,2.16211q0,3.90234-6.293,6.71484A25.704,25.704,0,0,1,931.87891,303.61719Zm-.94922-32.02735a9.01115,9.01115,0,0,0-7.13672,3.32227q-2.84766,3.32226-4.25391,10.002l10.793-5.13281a46.29668,46.29668,0,0,0,9.07031-5.37891Q936.37891,271.58984,930.92969,271.58984Z" transform="translate(-314.38672 -213.23535)" style="fill: #fff;stroke: #000;stroke-miterlimit: 10"/>
    <path d="M963.83594,274.36719l-.52735,17.47265q0,2.77736-.28125,8.15625-.35156,3.5149-3.44531,3.51563-3.4453,0-3.44531-3.58594,0-4.25317.38672-12.7793.38671-8.52465.38672-12.77929,0-5.55469.17578-12.709.17578-7.15356.17578-12.709,0-3.51489,3.44531-3.51563,3.48046,0,3.48047,3.51563,0,5.55542-.17578,12.709Q963.83594,268.8125,963.83594,274.36719Z" transform="translate(-314.38672 -213.23535)" style="fill: #fff;stroke: #000;stroke-miterlimit: 10"/>
    <path d="M982.92578,286.03906q0,2.10938.123,6.31055t.12305,6.31055a3.49413,3.49413,0,0,1-.94922,2.53125,3.63462,3.63462,0,0,1-4.97461,0,3.45862,3.45862,0,0,1-.9668-2.53125q0-2.10937-.12305-6.31055-.123-4.20043-.123-6.31055,0-3.30394.35156-8.24414.35155-4.93872.35156-8.24414a3.50593,3.50593,0,0,1,.9668-2.5664,3.61245,3.61245,0,0,1,4.957,0,3.50593,3.50593,0,0,1,.9668,2.5664q0,3.3047-.35157,8.24414T982.92578,286.03906Zm-1.582-28.54687a4.04593,4.04593,0,0,1-2.918-1.19531,3.99225,3.99225,0,0,1,0-5.76563,4.04787,4.04787,0,0,1,2.918-1.19531,3.98891,3.98891,0,0,1,2.90039,1.19531,4.0324,4.0324,0,0,1,0,5.76563A3.987,3.987,0,0,1,981.34375,257.49219Z" transform="translate(-314.38672 -213.23535)" style="fill: #fff;stroke: #000;stroke-miterlimit: 10"/>
    <path d="M1027.11719,271.83594l-5.13281,4.8164-6.25782,6.22266,11.46094,14.97656a3.61519,3.61519,0,0,1,.87891,2.21485,3.33453,3.33453,0,0,1-1.05469,2.42578,3.29715,3.29715,0,0,1-2.39063,1.05469,3.14542,3.14542,0,0,1-2.42578-1.30079q-3.23437-3.76171-11.39062-14.48437l-6.85547,7.06641q-2.07421,1.864-6.04688,5.80078a3.06822,3.06822,0,0,1-4.79882.21093,3.36148,3.36148,0,0,1-1.03711-2.42578,3.61523,3.61523,0,0,1,.8789-2.21484,22.993,22.993,0,0,1,3.0586-3.12891q2.42577-2.1438,3.19922-2.95312l7.48828-7.83985-4.60547-6.64453a33.63514,33.63514,0,0,0-4.85156-5.80078,3.47261,3.47261,0,0,1-1.33594-2.60156,3.58359,3.58359,0,0,1,1.00195-2.49609,3.05275,3.05275,0,0,1,2.30274-1.08985q2.07422,0,6.25781,5.41406l6.082,8.40235,6.89062-6.32813a41.474,41.474,0,0,0,5.80079-6.32812,3.21846,3.21846,0,0,1,2.67187-1.65235,3.39,3.39,0,0,1,2.42578,1.01954,3.18511,3.18511,0,0,1,1.05469,2.35546Q1030.38672,268.46095,1027.11719,271.83594Z" transform="translate(-314.38672 -213.23535)" style="fill: #fff;stroke: #000;stroke-miterlimit: 10"/>
  </g>
  <text x="-314.38672" y="-213.23535"/></svg>
